<?xml version="1.0" encoding="iso-8859-1"?>
<!-- Uploaded to: SVG Repo, www.svgrepo.com, Generator: SVG Repo Mixer Tools -->
<svg fill="#000000" height="800px" width="800px" version="1.1" id="Layer_1" xmlns="http://www.w3.org/2000/svg" xmlns:xlink="http://www.w3.org/1999/xlink" 
	 viewBox="0 0 496.008 496.008" xml:space="preserve">
<g>
	<g>
		<g>
			<path d="M288,64.004v326.232c-0.112-2.896-0.776-5.832-2.048-8.648c-2.632-5.8-7.6-10.28-13.648-12.304
				c-6.024-2.016-12.704-1.416-18.28,1.624l-17.552,9.592l2.416-7.176c2.28-6.776,1.16-14.28-3.016-20.088
				c-4.168-5.808-10.92-9.264-18.064-9.264c-9.152,0-17.256,5.48-20.656,13.984l-10.4,26.016h-24.688l-0.44-0.216l17.296-9.192
				c10.424-5.52,15.496-17.72,12.072-29c-1.968-6.504-6.4-11.8-12.472-14.872c-6.056-3.072-12.944-3.528-19.368-1.28L93.52,352.436
				L69.744,367.98H40.168v-15.976H0v16h24.168v72H0v16h40.168v-11.088l6.112,3.056h106.68l80.784-16.16l41.456-20.16
				c8.336-4.104,13.064-12.504,12.808-21.208v105.56h208v-432H288z M212.016,363.9c1.712-4.28,8.176-5.088,10.864-1.328
				c1.184,1.656,1.504,3.712,0.848,5.64l-5.304,15.76h-14.44L212.016,363.9z M268.12,397.316l-38.544,19.016l-78.184,15.64H50.064
				l-9.888-4.944v-43.056H74.6l25.184-16.784l64.68-22.696c2.264-0.784,4.696-0.632,6.832,0.456c2.136,1.088,3.704,2.952,4.4,5.248
				c1.208,3.976-0.576,8.272-4.256,10.224l-44.704,23.768l31.56,15.784h75.936l27.48-15.016c1.712-0.936,3.68-1.136,5.536-0.496
				c1.856,0.616,3.336,1.944,4.144,3.728C272.936,391.636,271.496,395.644,268.12,397.316z M480,280.004v200H304v-200v-200h176
				V280.004z"/>
			<path d="M392,192.004c-48.52,0-88,39.48-88,88s39.48,88,88,88c48.52,0,88-39.48,88-88C480,231.484,440.52,192.004,392,192.004z
				 M392,352.004c-39.704,0-72-32.296-72-72c0-39.704,32.296-72,72-72c39.704,0,72,32.296,72,72S431.704,352.004,392,352.004z"/>
			<path d="M408,248.004c-13.232,0-24,10.768-24,24v16c0,4.416-3.584,8-8,8c-4.416,0-8-3.584-8-8v-16c0-4.416,3.584-8,8-8v-16
				c-13.232,0-24,10.768-24,24h-16v16h16c0,13.232,10.768,24,24,24s24-10.768,24-24v-16c0-4.416,3.584-8,8-8c4.416,0,8,3.584,8,8v16
				c0,4.416-3.584,8-8,8v16c13.232,0,24-10.768,24-24h16v-16h-16C432,258.772,421.232,248.004,408,248.004z"/>
			<path d="M160,144.004v-16c13.232,0,24-10.768,24-24s-10.768-24-24-24h-16c-4.416,0-8-3.584-8-8s3.584-8,8-8h16
				c4.416,0,8,3.584,8,8h16c0-13.232-10.768-24-24-24v-16h-16v16c-13.232,0-24,10.768-24,24s10.768,24,24,24h16c4.416,0,8,3.584,8,8
				s-3.584,8-8,8h-16c-4.416,0-8-3.584-8-8h-16c0,13.232,10.768,24,24,24v16H160z"/>
			<path d="M96,256.004H80v64h176v-48h16v-64h-32v-48h-37.56c22.672-15.936,37.56-42.24,37.56-72c0-48.52-39.48-88-88-88
				s-88,39.48-88,88c0,29.76,14.888,56.064,37.56,72H64v64h32V256.004z M240,304.004H96v-32h16v16h16v-16h16v16h16v-16h16v16h16v-16
				h16v16h16v-16h16V304.004z M240,224.004h16v32H112v-32h16v16h16v-16h16v16h16v-16h16v16h16v-16h16v16h16V224.004z M80,88.004
				c0-39.704,32.296-72,72-72s72,32.296,72,72s-32.296,72-72,72S80,127.708,80,88.004z M80,208.004v-32h16v16h16v-16h16v16h16v-16
				h16v16h16v-16h16v16h16v-16h16v32H104h-8H80z"/>
		</g>
	</g>
</g>
</svg>