<?xml version="1.0" encoding="iso-8859-1"?>
<!-- Uploaded to: SVG Repo, www.svgrepo.com, Generator: SVG Repo Mixer Tools -->
<svg fill="#000000" height="800px" width="800px" version="1.1" id="Layer_1" xmlns="http://www.w3.org/2000/svg" xmlns:xlink="http://www.w3.org/1999/xlink" 
	 viewBox="0 0 512 512" xml:space="preserve">
<g>
	<g>
		<path d="M475.764,47H36.336C15.62,47,0,61.332,0,80.344V337c0,20.244,16.98,38,36.336,38H144c2.212,0,4-1.792,4-4s-1.788-4-4-4
			H36.336C21.508,367,8,352.7,8,337V80.344C8,65.66,19.916,55,36.336,55h439.428C492.124,55,504,65.66,504,80.344V337
			c0,15.98-13.196,30-28.236,30H372c-2.212,0-4,1.792-4,4s1.788,4,4,4h103.764C495.068,375,512,357.244,512,337V80.344
			C512,61.332,496.42,47,475.764,47z"/>
	</g>
</g>
<g>
	<g>
		<path d="M364,108.672c-26.468,0-48,21.532-48,48s21.532,48,48,48c5.788,0,11.452-1.024,16.832-3.04
			c2.072-0.776,3.116-3.084,2.344-5.152c-0.772-2.068-3.096-3.112-5.148-2.34c-4.48,1.68-9.2,2.532-14.028,2.532
			c-22.056,0-40-17.944-40-40c0-22.056,17.944-40,40-40c22.056,0,40,17.944,40,40c0,10.244-3.872,19.988-10.904,27.436
			c-1.516,1.608-1.44,4.14,0.164,5.656c1.608,1.516,4.136,1.444,5.656-0.164c8.44-8.936,13.084-20.632,13.084-32.928
			C412,130.204,390.468,108.672,364,108.672z"/>
	</g>
</g>
<g>
	<g>
		<path d="M428.004,108.672c-6.64,0-13.056,1.328-19.084,3.94c-2.028,0.876-2.96,3.232-2.08,5.26
			c0.872,2.024,3.228,2.964,5.256,2.08c5.02-2.176,10.368-3.28,15.904-3.28c22.056,0,40,17.944,40,40c0,22.056-17.944,40-40,40
			c-22.056,0-40-17.944-40-40c0-7.784,2.24-15.328,6.472-21.82c1.296-1.996,2.788-3.892,4.432-5.636
			c1.52-1.608,1.444-4.14-0.16-5.656c-1.608-1.512-4.136-1.448-5.652,0.164c-1.976,2.092-3.772,4.368-5.328,6.764
			c-5.076,7.788-7.764,16.844-7.764,26.184c0,26.468,21.532,48,48,48c26.468,0,48.004-21.532,48.004-48
			S454.472,108.672,428.004,108.672z"/>
	</g>
</g>
<g>
	<g>
		<path d="M132,115H68c-15.436,0-28,12.56-28,28v32c0,15.44,12.564,28,28,28h64c15.436,0,28-12.56,28-28v-32
			C160,127.56,147.436,115,132,115z M152,175c0,11.028-8.972,20-20,20H68c-11.028,0-20-8.972-20-20v-32c0-11.028,8.972-20,20-20h64
			c11.028,0,20,8.972,20,20V175z"/>
	</g>
</g>
<g>
	<g>
		<path d="M132,275H44c-2.212,0-4,1.792-4,4v28c0,2.208,1.788,4,4,4h88c2.212,0,4-1.792,4-4v-28C136,276.792,134.212,275,132,275z
			 M128,303H48v-20h80V303z"/>
	</g>
</g>
<g>
	<g>
		<path d="M468,275h-88c-2.212,0-4,1.792-4,4v28c0,2.208,1.788,4,4,4h88c2.212,0,4-1.792,4-4v-28C472,276.792,470.212,275,468,275z
			 M464,303h-80v-20h80V303z"/>
	</g>
</g>
<g>
	<g>
		<path d="M128,167H44c-2.212,0-4,1.792-4,4s1.788,4,4,4h84c2.212,0,4-1.792,4-4S130.212,167,128,167z"/>
	</g>
</g>
<g>
	<g>
		<path d="M128,143H44c-2.212,0-4,1.792-4,4s1.788,4,4,4h84c2.212,0,4-1.792,4-4S130.212,143,128,143z"/>
	</g>
</g>
<g>
	<g>
		<path d="M308.192,339H268v-41.816c0-6.576-5.384-11.928-12-11.928c-6.616,0-12,5.348-12,11.928V339h-39.564
			c-6.58,0-11.932,5.384-11.932,12c0,6.616,5.348,12,11.932,12H244v37.944c0,6.576,5.384,11.928,12,11.928
			c6.616,0,12-5.352,12-11.932V363h40.192c6.58,0,11.932-5.384,11.932-12C320.124,344.384,314.776,339,308.192,339z M308.192,355
			H264c-2.212,0-4,1.792-4,4v41.94c0,2.164-1.792,3.928-4,3.928c-2.168,0-4-1.796-4-3.928V359c0-2.208-1.788-4-4-4h-43.564
			c-2.168,0-3.932-1.796-3.932-4c0-2.204,1.764-4,3.932-4H248c2.212,0,4-1.792,4-4v-45.816c0-2.128,1.832-3.928,4-3.928
			c2.208,0,4,1.76,4,3.928V343c0,2.208,1.788,4,4,4h44.192c2.168,0,3.932,1.796,3.932,4C312.124,353.204,310.36,355,308.192,355z"/>
	</g>
</g>
<g>
	<g>
		<path d="M256.312,233.304c-63.876,0-115.844,51.968-115.844,115.844c0,63.88,51.968,115.852,115.844,115.852
			s115.844-51.972,115.844-115.852C372.156,285.272,320.188,233.304,256.312,233.304z M256.312,457
			c-59.464,0-107.844-48.384-107.844-107.852c0-59.464,48.38-107.844,107.844-107.844s107.844,48.38,107.844,107.844
			C364.156,408.616,315.776,457,256.312,457z"/>
	</g>
</g>
<g>
	<g>
		<path d="M334.28,286.308c-1.388-1.716-3.908-1.984-5.624-0.592c-1.716,1.392-1.984,3.912-0.592,5.628
			c13.184,16.28,20.444,36.808,20.444,57.808c0,50.696-41.248,91.94-91.944,91.94c-50.696,0-91.944-41.244-91.944-91.94
			c0-50.696,41.244-91.94,91.944-91.94c18.036,0,35.496,5.22,50.496,15.096c1.848,1.216,4.332,0.7,5.54-1.144
			c1.216-1.844,0.704-4.324-1.14-5.54c-16.312-10.736-35.296-16.412-54.896-16.412c-55.108,0-99.944,44.832-99.944,99.94
			c0,55.108,44.836,99.94,99.944,99.94c55.108,0,99.944-44.832,99.944-99.944C356.508,326.324,348.612,304.008,334.28,286.308z"/>
	</g>
</g>
</svg>