<?xml version="1.0" encoding="utf-8"?>
<!-- Uploaded to: SVG Repo, www.svgrepo.com, Generator: SVG Repo Mixer Tools -->
<svg width="800px" height="800px" viewBox="0 0 1024 1024" fill="#000000" class="icon"  version="1.1" xmlns="http://www.w3.org/2000/svg"><path d="M552.044 731.868c-16.572 0-31.048-3.154-33.846-3.792a8.006 8.006 0 0 1-5.996-9.59c1-4.294 5.264-7.014 9.59-5.998 12.292 2.826 47.524 7.512 62.768-4.638 4.982-3.952 7.402-9.542 7.402-17.07 0-20.224-18.022-35.218-37.108-51.07-21.068-17.508-42.872-35.624-42.856-63.362 0-8.278 3.264-15.212 9.434-20.022 18.71-14.65 59.848-4.904 64.47-3.718a7.994 7.994 0 0 1 5.824 9.684c-1.06 4.28-5.388 6.874-9.698 5.826-14.604-3.638-41.232-6.608-50.758 0.812-1.532 1.202-3.282 3.108-3.282 7.418-0.016 20.24 18.008 35.204 37.094 51.07 21.068 17.508 42.872 35.624 42.872 63.362 0 12.384-4.654 22.616-13.448 29.612-11.29 8.978-27.704 11.476-42.462 11.476zM791.872 683.796a7.994 7.994 0 0 1-7.996-7.996l-0.032-71.484a7.994 7.994 0 0 1 7.996-7.996 7.99 7.99 0 0 1 7.996 7.996l0.032 71.484a8 8 0 0 1-7.996 7.996zM887.828 683.796a7.992 7.992 0 0 1-7.996-7.996v-71.468c0-4.418 3.576-7.996 7.996-7.996s7.996 3.578 7.996 7.996V675.8a7.992 7.992 0 0 1-7.996 7.996z" fill="" /><path d="M887.828 612.328a7.99 7.99 0 0 1-7.996-7.996c0-10.682-4.154-20.724-11.714-28.268a39.616 39.616 0 0 0-28.236-11.712h-0.032c-22.038 0-39.982 17.93-40.014 39.98a7.996 7.996 0 0 1-7.996 7.98h-0.016a8.012 8.012 0 0 1-7.98-8.012c0.032-30.844 25.16-55.942 56.006-55.942h0.032c14.932 0 28.97 5.808 39.544 16.382 10.574 10.572 16.398 24.628 16.398 39.59a7.992 7.992 0 0 1-7.996 7.998zM839.866 731.774c-30.876 0-55.99-25.114-55.99-55.972a7.992 7.992 0 0 1 7.996-7.996 7.99 7.99 0 0 1 7.996 7.996c0 22.05 17.93 39.98 39.982 39.98 22.038-0.032 39.982-17.96 39.982-39.98 0-4.42 3.576-7.996 7.996-7.996s7.996 3.576 7.996 7.996c0 30.826-25.114 55.94-55.958 55.972zM743.894 568.35h-79.964c-4.418 0-7.996-3.576-7.996-7.996s3.578-7.998 7.996-7.998h79.964c4.42 0 7.996 3.578 7.996 7.998s-3.576 7.996-7.996 7.996zM743.894 728.26h-79.964c-4.418 0-7.996-3.576-7.996-7.996s3.578-7.996 7.996-7.996h79.964c4.42 0 7.996 3.576 7.996 7.996s-3.576 7.996-7.996 7.996z" fill="" /><path d="M663.93 728.26a7.992 7.992 0 0 1-7.996-7.996v-159.91a7.994 7.994 0 0 1 7.996-7.998 7.992 7.992 0 0 1 7.996 7.998v159.91a7.99 7.99 0 0 1-7.996 7.996z" fill="" /><path d="M663.93 648.312a7.992 7.992 0 0 1-7.996-7.996 8.002 8.002 0 0 1 7.996-7.996l63.972-0.016c4.418 0 7.996 3.576 7.996 7.996s-3.578 7.996-7.996 7.996l-63.972 0.016z" fill="" /><path d="M1015.754 919.688a7.98 7.98 0 0 1-7.95-7.34l-47.978-591.736a8 8 0 0 1 7.324-8.622c4.436-0.25 8.264 2.928 8.606 7.324l47.978 591.72a7.988 7.988 0 0 1-7.324 8.622c-0.218 0.032-0.438 0.032-0.656 0.032z" fill="" /><path d="M1015.77 919.688H376.062a7.99 7.99 0 0 1-7.996-7.996 7.992 7.992 0 0 1 7.996-7.996h639.708a7.992 7.992 0 0 1 7.996 7.996 7.99 7.99 0 0 1-7.996 7.996z" fill="" /><path d="M376.078 919.688c-0.218 0-0.438 0-0.656-0.032a7.986 7.986 0 0 1-7.324-8.622l47.978-591.72c0.344-4.396 4.248-7.598 8.606-7.324a8 8 0 0 1 7.326 8.622l-47.978 591.736a7.98 7.98 0 0 1-7.952 7.34z" fill="" /><path d="M519.996 327.958H424.04c-4.42 0-7.998-3.576-7.998-7.996s3.578-7.996 7.998-7.996h95.956c4.42 0 7.996 3.576 7.996 7.996s-3.576 7.996-7.996 7.996zM967.792 327.958h-95.956c-4.42 0-7.996-3.576-7.996-7.996s3.576-7.996 7.996-7.996h95.956c4.42 0 7.996 3.576 7.996 7.996s-3.578 7.996-7.996 7.996zM791.872 327.958H599.96c-4.422 0-7.998-3.576-7.998-7.996s3.576-7.996 7.998-7.996h191.91c4.422 0 7.996 3.576 7.996 7.996s-3.574 7.996-7.994 7.996zM967.792 871.71H424.042a7.994 7.994 0 0 1-7.998-7.996 7.992 7.992 0 0 1 7.998-7.996h543.75a7.99 7.99 0 0 1 7.996 7.996 7.994 7.994 0 0 1-7.996 7.996z" fill="" /><path d="M551.998 407.924a7.99 7.99 0 0 1-7.982-8.66c1-12.042 26.05-294.952 151.9-294.952s150.9 282.908 151.898 294.952a7.988 7.988 0 0 1-7.292 8.628c-4.388 0.396-8.278-2.89-8.636-7.302-0.234-2.802-24.722-280.286-135.968-280.286-111.292 0-135.734 277.482-135.968 280.286a7.992 7.992 0 0 1-7.952 7.334z" fill="" /><path d="M328.084 919.688H8.23a7.99 7.99 0 0 1-7.996-7.996 7.992 7.992 0 0 1 7.996-7.996h319.854a7.992 7.992 0 0 1 7.996 7.996 7.99 7.99 0 0 1-7.996 7.996z" fill="" /><path d="M8.246 919.688c-0.218 0-0.422 0-0.624-0.032a7.986 7.986 0 0 1-7.356-8.59l31.986-415.8c0.328-4.42 4.608-7.708 8.574-7.356a7.992 7.992 0 0 1 7.356 8.59L16.196 912.316a7.984 7.984 0 0 1-7.95 7.372z" fill="" /><path d="M360.07 503.878H40.216c-4.418 0-7.996-3.576-7.996-7.996s3.578-7.996 7.996-7.996h319.854c4.418 0 7.996 3.576 7.996 7.996s-3.576 7.996-7.996 7.996zM328.084 871.71H56.208a7.992 7.992 0 0 1-7.996-7.996 7.99 7.99 0 0 1 7.996-7.996h271.876a7.99 7.99 0 0 1 7.996 7.996 7.992 7.992 0 0 1-7.996 7.996z" fill="" /><path d="M320.088 727.778c-125.052 0-159.444-164.692-159.77-166.364a7.996 7.996 0 0 1 6.262-9.4c4.264-0.844 8.542 1.92 9.418 6.278 0.312 1.532 32.172 153.492 144.09 153.492a118.6 118.6 0 0 0 22.474-2.124c4.232-0.844 8.512 1.998 9.37 6.34a8.008 8.008 0 0 1-6.34 9.372 135.194 135.194 0 0 1-25.504 2.406z" fill="" /><path d="M360.07 471.91H56.208c-4.42 0-7.996-3.578-7.996-7.998s3.576-7.996 7.996-7.996h303.862c4.418 0 7.996 3.576 7.996 7.996s-3.576 7.998-7.996 7.998z" fill="" /><path d="M951.798 295.974h-95.956c-4.422 0-7.998-3.576-7.998-7.996s3.576-7.996 7.998-7.996h95.956c4.42 0 7.996 3.576 7.996 7.996s-3.576 7.996-7.996 7.996z" fill="" /><path d="M535.988 295.974h-95.956c-4.42 0-7.996-3.576-7.996-7.996s3.576-7.996 7.996-7.996h95.956c4.42 0 7.996 3.576 7.996 7.996s-3.576 7.996-7.996 7.996z" fill="" /><path d="M775.878 295.974h-159.926c-4.42 0-7.996-3.576-7.996-7.996s3.576-7.996 7.996-7.996h159.926c4.42 0 7.996 3.576 7.996 7.996s-3.576 7.996-7.996 7.996z" fill="" /></svg>